# xmcd
#
# Track frame offsets: 
#        150
#        22760
#        41014
#        56599
#        77701
#        100995
#        130898
#        146870
#        164191
#
# Disc length: 2432 seconds
#
# Revision: 0
# Processed by: cddbd v1.5.2PL0 Copyright (c) Steve Scherf et al.
# Submitted via: ExactAudioCopy v0.95b4
#
DISCID=7b097e09
DTITLE=Cox, Izzie - Love Letters From The Electric Chair [CD1]
DYEAR=2007
DGENRE=
TTITLE0=Crystal Ball 78
TTITLE1=Devil Devil
TTITLE2=Electric Chair
TTITLE3=Killer From Hawaii
TTITLE4=It Must Be Love
TTITLE5=Daddy
TTITLE6=Promised Roses
TTITLE7=Burn Your Bed
TTITLE8=Buried Heart
EXTD=
EXTT0=
EXTT1=
EXTT2=
EXTT3=
EXTT4=
EXTT5=
EXTT6=
EXTT7=
EXTT8=
PLAYORDER=
